<?xml version="1.0" encoding="utf-8"?>
<!-- Generator: Adobe Illustrator 24.0.0, SVG Export Plug-In . SVG Version: 6.00 Build 0)  -->
<svg version="1.1"
	 id="svg4677" inkscape:version="0.92.2 5c3e80d, 2017-08-06" sodipodi:docname="logo.svg" xmlns:cc="http://creativecommons.org/ns#" xmlns:dc="http://purl.org/dc/elements/1.1/" xmlns:inkscape="http://www.inkscape.org/namespaces/inkscape" xmlns:rdf="http://www.w3.org/1999/02/22-rdf-syntax-ns#" xmlns:sodipodi="http://sodipodi.sourceforge.net/DTD/sodipodi-0.dtd" xmlns:svg="http://www.w3.org/2000/svg"
	 xmlns="http://www.w3.org/2000/svg" xmlns:xlink="http://www.w3.org/1999/xlink" x="0px" y="0px" viewBox="0 0 528.2 81.9"
	 style="enable-background:new 0 0 528.2 81.9;" xml:space="preserve">
<style type="text/css">
	.st0{fill:#FF6600;}
	.st1{clip-path:url(#SVGID_2_);}
</style>
<sodipodi:namedview  bordercolor="#666666" borderopacity="1" fit-margin-bottom="0" fit-margin-left="0" fit-margin-right="0" fit-margin-top="0" gridtolerance="10" guidetolerance="10" id="namedview4679" inkscape:current-layer="g4697" inkscape:cx="140.49001" inkscape:cy="7.9571507" inkscape:pageopacity="0" inkscape:pageshadow="2" inkscape:window-height="1006" inkscape:window-maximized="1" inkscape:window-width="1680" inkscape:window-x="0" inkscape:window-y="0" inkscape:zoom="9.5144324" objecttolerance="10" pagecolor="#ffffff" showgrid="false">
	</sodipodi:namedview>
<g id="g4685" transform="matrix(1.3333333,0,0,-1.3333333,-132.77487,602.18952)" inkscape:groupmode="layer" inkscape:label="Alibaba-Group-logo">
	<g id="g4687" transform="translate(208.667,422.6014)">
		<path id="path4689" inkscape:connector-curvature="0" class="st0" d="M0,0h-9.1L4.9,27.2H15L28.5,0H18.3l-2,4.9H2.2L0,0z
			 M13.8,10.8l-4.3,9.9l-4.6-9.9L13.8,10.8z"/>
	</g>
	<path id="path4691" inkscape:connector-curvature="0" class="st0" d="M239.2,449.8h8.7v-27.2h-8.7V449.8z"/>
	<path id="path4693" inkscape:connector-curvature="0" class="st0" d="M252.4,449.8h8.7v-5.5h-8.7L252.4,449.8z M252.4,441.5h8.7
		v-18.9h-8.7L252.4,441.5z"/>
	<g id="g4695">
		<g>
			<defs>
				<rect id="SVGID_1_" x="-99.2" y="-140.3" width="793.7" height="1122.5"/>
			</defs>
			<clipPath id="SVGID_2_">
				<use xlink:href="#SVGID_1_"  style="overflow:visible;"/>
			</clipPath>
			<g id="g4697" class="st1">
				<g id="g4703" transform="translate(265.8913,449.7558)">
					<path id="path4705" inkscape:connector-curvature="0" class="st0" d="M0,0h8.7v-10.9c1,1.1,2.2,1.9,3.5,2.4
						c1.3,0.5,2.7,0.8,4.2,0.8c3,0,5.4-1,7.2-2.9c1.8-1.9,2.7-4.4,2.7-7.6c0-2.9-0.9-5.2-2.7-6.9c-1.8-1.7-4.1-2.6-7.1-2.6
						c-1.6,0-3.1,0.3-4.4,0.9c-1.3,0.6-2.5,1.5-3.4,2.6c0-0.6,0-1.2-0.1-1.7c0-0.5-0.1-1-0.2-1.3h-8.7c0.1,0.4,0.2,0.8,0.2,1.3
						C0-25.3,0-24.7,0-24V0 M17.5-17.8c0,1.7-0.4,3-1.2,3.9c-0.8,1-1.8,1.4-3.2,1.4c-1.4,0-2.6-0.5-3.3-1.4c-0.8-0.9-1.2-2.3-1.2-4
						c0-1.7,0.4-3,1.2-3.9c0.8-0.9,1.9-1.4,3.2-1.4c1.4,0,2.4,0.5,3.2,1.4C17.1-20.7,17.5-19.4,17.5-17.8"/>
				</g>
				<g id="g4707" transform="translate(312.1904,425.6351)">
					<path id="path4709" inkscape:connector-curvature="0" class="st0" d="M0,0c-0.8-1.1-1.9-1.9-3.2-2.4C-4.6-3-6.2-3.2-8.1-3.2
						c-2.7,0-4.8,0.5-6.2,1.4c-1.4,1-2.2,2.3-2.2,4.1c0,2.4,1.2,4.1,3.7,5.2C-10.2,8.5-6,9.1-0.1,9.1c0,0,0,0.1,0,0.2
						c0,0.1,0,0.2,0,0.2c0,1-0.3,1.7-0.9,2.2c-0.6,0.5-1.5,0.7-2.6,0.7c-1.1,0-1.9-0.2-2.4-0.5c-0.6-0.3-0.9-0.9-1-1.6h-8.1
						c0,2.1,1,3.7,3,4.7c2,1,4.9,1.5,8.9,1.5c3.8,0,6.7-0.6,8.6-1.8c1.9-1.2,2.8-3,2.8-5.5v-9.6c0-0.6,0-1.1,0.1-1.4
						c0.1-0.4,0.1-0.7,0.3-1H0.5C0.3-2.3,0.2-1.9,0.1-1.4C0-1,0-0.5,0,0 M-0.2,5.4C-3,5.4-4.9,5.2-6,4.8c-1-0.4-1.5-1-1.5-1.9
						c0-0.6,0.2-1.1,0.7-1.5c0.5-0.3,1.2-0.5,2.1-0.5c1.5,0,2.6,0.3,3.3,1c0.7,0.7,1.1,1.7,1.1,3.1L-0.2,5.4z"/>
				</g>
				<g id="g4711" transform="translate(324.366,449.7558)">
					<path id="path4713" inkscape:connector-curvature="0" class="st0" d="M0,0h8.7v-10.9c1,1.1,2.2,1.9,3.5,2.4
						c1.3,0.5,2.7,0.8,4.2,0.8c3,0,5.4-1,7.2-2.9c1.8-1.9,2.7-4.4,2.7-7.6c0-2.9-0.9-5.2-2.7-6.9c-1.8-1.7-4.1-2.6-7.1-2.6
						c-1.6,0-3.1,0.3-4.4,0.9c-1.3,0.6-2.5,1.5-3.4,2.6c0-0.6,0-1.2-0.1-1.7c0-0.5-0.1-1-0.2-1.3h-8.7c0.1,0.4,0.2,0.8,0.2,1.3
						C0-25.3,0-24.7,0-24V0 M17.5-17.8c0,1.7-0.4,3-1.2,3.9c-0.8,1-1.9,1.4-3.2,1.4c-1.4,0-2.6-0.5-3.3-1.4c-0.8-0.9-1.2-2.3-1.2-4
						c0-1.7,0.4-3,1.2-3.9c0.8-0.9,1.9-1.4,3.2-1.4c1.4,0,2.4,0.5,3.2,1.4C17.1-20.7,17.5-19.4,17.5-17.8"/>
				</g>
				<g id="g4715" transform="translate(370.6665,425.6351)">
					<path id="path4717" inkscape:connector-curvature="0" class="st0" d="M0,0c-0.8-1.1-1.9-1.9-3.2-2.4C-4.6-3-6.2-3.2-8.1-3.2
						c-2.7,0-4.8,0.5-6.2,1.4c-1.4,1-2.2,2.3-2.2,4.1c0,2.4,1.2,4.1,3.7,5.2C-10.2,8.5-6,9.1-0.1,9.1c0,0,0,0.1,0,0.2
						c0,0.1,0,0.2,0,0.2c0,1-0.3,1.7-0.9,2.2c-0.6,0.5-1.5,0.7-2.6,0.7c-1.1,0-1.9-0.2-2.4-0.5c-0.6-0.3-0.9-0.9-1-1.6h-8.1
						c0,2.1,1,3.7,3,4.7c2,1,4.9,1.5,8.9,1.5c3.8,0,6.7-0.6,8.6-1.8c1.9-1.2,2.8-3,2.8-5.5v-9.6c0-0.6,0-1.1,0.1-1.4
						c0.1-0.4,0.2-0.7,0.3-1H0.5C0.3-2.3,0.2-1.9,0.1-1.4C0-1,0-0.5,0,0 M-0.2,5.4C-3,5.4-4.9,5.2-6,4.8c-1-0.4-1.5-1-1.5-1.9
						c0-0.6,0.3-1.1,0.7-1.5c0.5-0.3,1.2-0.5,2.1-0.5c1.5,0,2.6,0.3,3.3,1c0.7,0.7,1.1,1.7,1.1,3.1L-0.2,5.4z"/>
				</g>
				<g id="g4719" transform="translate(405.4789,432.8857)">
					<path id="path4721" inkscape:connector-curvature="0" class="st0" d="M0,0v3.2h11.4v-10C9.7-8.2,7.9-9.3,6-10
						C4.1-10.7,2.2-11,0.3-11c-2.6,0-5.1,0.6-7.2,1.7c-2.2,1.1-3.8,2.8-4.9,4.9c-1.1,2.2-1.7,4.5-1.7,7.2c0,2.6,0.5,5.1,1.6,7.4
						c1.1,2.3,2.7,4,4.7,5.1c2.1,1.1,4.4,1.7,7.1,1.7c2,0,3.7-0.3,5.3-0.9c1.6-0.6,2.8-1.5,3.7-2.6c0.9-1.1,1.6-2.6,2-4.4L7.8,8
						c-0.4,1.4-0.9,2.5-1.5,3.2c-0.6,0.8-1.5,1.4-2.6,1.9c-1.1,0.5-2.3,0.7-3.7,0.7c-1.6,0-3-0.2-4.2-0.7c-1.2-0.5-2.1-1.2-2.9-2
						c-0.7-0.8-1.3-1.7-1.7-2.7c-0.7-1.7-1-3.5-1-5.4c0-2.4,0.4-4.4,1.2-6.1c0.8-1.6,2-2.8,3.6-3.6c1.6-0.8,3.3-1.2,5-1.2
						c1.5,0,3,0.3,4.5,0.9C6-6.4,7.2-5.7,7.9-5l0,5H0"/>
				</g>
				<g id="g4723" transform="translate(422.1429,422.2315)">
					<path id="path4725" inkscape:connector-curvature="0" class="st0" d="M0,0v19.6h3v-3c0.8,1.4,1.5,2.3,2.1,2.7
						C5.8,19.8,6.5,20,7.2,20c1.1,0,2.3-0.4,3.4-1.1l-1.2-3.1c-0.8,0.5-1.6,0.7-2.4,0.7c-0.7,0-1.4-0.2-2-0.7c-0.6-0.4-1-1-1.2-1.8
						c-0.4-1.2-0.6-2.5-0.6-3.9V0H0"/>
				</g>
				<g id="g4727" transform="translate(433.4608,432.0049)">
					<path id="path4729" inkscape:connector-curvature="0" class="st0" d="M0,0c0,3.6,1,6.3,3,8c1.7,1.4,3.7,2.2,6.1,2.2
						c2.7,0,4.9-0.9,6.6-2.6c1.7-1.8,2.6-4.2,2.6-7.3c0-2.5-0.4-4.5-1.1-5.9c-0.8-1.4-1.9-2.6-3.3-3.4c-1.4-0.8-3-1.2-4.7-1.2
						c-2.7,0-4.9,0.9-6.6,2.6C0.8-5.8,0-3.3,0,0 M3.4,0c0-2.5,0.5-4.4,1.6-5.6c1.1-1.2,2.5-1.9,4.1-1.9c1.6,0,3,0.6,4.1,1.9
						c1.1,1.3,1.6,3.2,1.6,5.7c0,2.4-0.5,4.2-1.6,5.5c-1.1,1.2-2.5,1.9-4.1,1.9c-1.7,0-3-0.6-4.1-1.9C4,4.4,3.4,2.5,3.4,0"/>
				</g>
				<g id="g4731" transform="translate(468.9684,422.6609)">
					<path id="path4733" inkscape:connector-curvature="0" class="st0" d="M0,0v2.9c-1.5-2.2-3.6-3.3-6.2-3.3
						c-1.2,0-2.2,0.2-3.2,0.7c-1,0.4-1.7,1-2.2,1.7c-0.5,0.7-0.8,1.5-1,2.5C-12.8,5-12.9,6-12.9,7.4v12.1h3.3V8.7
						c0-1.7,0.1-2.9,0.2-3.5C-9.1,4.4-8.7,3.7-8,3.2c0.7-0.5,1.5-0.7,2.5-0.7c1,0,1.9,0.3,2.8,0.8c0.9,0.5,1.5,1.2,1.8,2.1
						c0.4,0.9,0.5,2.1,0.5,3.8v10.5H3V0H0"/>
				</g>
				<g id="g4735" transform="translate(478.7327,414.7494)">
					<path id="path4737" inkscape:connector-curvature="0" class="st0" d="M0,0v27h3v-2.5c0.7,1,1.5,1.7,2.4,2.2
						c0.9,0.5,2,0.7,3.3,0.7c1.7,0,3.1-0.4,4.4-1.3c1.3-0.9,2.2-2.1,2.9-3.6c0.7-1.6,1-3.3,1-5.1c0-2-0.4-3.8-1.1-5.4
						c-0.7-1.6-1.8-2.8-3.1-3.7C11.4,7.5,10,7.1,8.5,7.1c-1.1,0-2.1,0.2-3,0.7C4.6,8.2,3.9,8.8,3.3,9.5V0H0 M3,17.1
						c0-2.5,0.5-4.4,1.5-5.6c1-1.2,2.2-1.8,3.7-1.8c1.5,0,2.7,0.6,3.8,1.9c1.1,1.2,1.6,3.2,1.6,5.8c0,2.5-0.5,4.4-1.5,5.6
						c-1,1.2-2.2,1.9-3.7,1.9c-1.4,0-2.7-0.7-3.7-2C3.5,21.6,3,19.7,3,17.1"/>
				</g>
				<g id="g4739" transform="translate(112.6077,398.8102)">
					<path id="path4741" inkscape:connector-curvature="0" d="M0.3,0.6c-0.5,0.1-1.2,0.5-1.8,0.9c-5.1,5,1.5,10.8,9.1,14.1v9.5
						c1.8-1.1,2.8-1.2,2.8-1.3l5.8,5.8l-1.9,5c17,5.9,23.9,8.1,37.7,10.5l-2.5,2.3l4,2.3c9.3-3.1,18.1-3.9,16.6-11.7
						c0.4,5.3-6.2,7.3-16.2,10.1L52,46.9l3.7-3.1C39.2,41,29,37.7,16.8,33.5l1.7-4.3l-6.1-6c1-0.3,11.6-3.8,22.7,3.9
						c0,0,0.2,0.2,0.2,0.2c-0.3,0.5-1.1,1.1-2,1.9c3.2-0.2,5.3-3.1,5-6h-1.5c0.1,1-0.1,2-0.4,2.7c-8.6-6.3-18.5-7.2-27-4.2v-7.4
						C5.3,12.9-2,8.4-2,4C-1.7,1.9-0.6,1.1,0.3,0.6"/>
				</g>
				<g id="g4743" transform="translate(147.6202,401.2868)">
					<path id="path4745" inkscape:connector-curvature="0" class="st0" d="M0,0c-9.2-4.6-18-8.4-31.5-8.9
						c-17.6,0.4-20.4,12.1-12,24.3c7.9,12.3,20.4,23.5,40.3,30.5c5.8,2,14.2,4.4,22.4,4.5c11.8,0.1,23.2-3.6,22.4-14.8
						C41.2,26.9,28.7,14.7,22.2,6c-2.8-3.8-3.3-6.3,1.5-6.1C41.1,1,56.9,7.1,71.5,13.3C61.6,6.6,10.3-18.8,10.1-1.5
						c0.1,2.2,1.1,4.5,2.7,7c1.6,2.5,3.9,5.1,6.2,7.7c3.5,4,12.2,13.5,15.1,19.2c4.9,10.8-6.1,11.4-15.6,14.7l-4-2.3l2.5-2.3
						C3.2,40.2-3.7,38-20.7,32.1l1.9-5l-5.8-5.8c-0.2,0.2-1,0.2-2.8,1.3v-9.5C-35,9.8-41.6,4-36.4-1c0.5-0.4,1.3-0.9,1.8-0.9
						C-25.3-7.2,0,0,0,0"/>
				</g>
				<g id="g4747" transform="translate(202.4596,395.08025)">
					<path id="path4749" inkscape:connector-curvature="0" class="st0" d="M0,0h1.2c0.3,0,0.5,0,0.6,0.1C2,0.1,2.1,0.2,2.1,0.3
						c0.1,0.1,0.1,0.2,0.1,0.4c0,0.2-0.1,0.4-0.2,0.5C1.9,1.3,1.7,1.4,1.3,1.4H0V0z M-0.6-2.4v4.3h1.9c0.4,0,0.7,0,0.9-0.1
						c0.2-0.1,0.4-0.2,0.5-0.4c0.1-0.2,0.2-0.4,0.2-0.6c0-0.3-0.1-0.6-0.3-0.8C2.3-0.3,2-0.4,1.6-0.5C1.8-0.5,1.9-0.6,2-0.7
						C2.1-0.8,2.3-1,2.4-1.2l0.7-1.2H2.5L1.9-1.5C1.8-1.3,1.6-1.1,1.5-0.9C1.4-0.8,1.3-0.7,1.2-0.6C1.1-0.6,1.1-0.5,1-0.5
						c-0.1,0-0.2,0-0.3,0H0v-1.9H-0.6z"/>
				</g>
				<g id="g4751" transform="translate(203.6136,390.7014)">
					<path id="path4753" inkscape:connector-curvature="0" class="st0" d="M0,0c2.2,0,4.1,1.8,4.1,4.1c0,2.2-1.8,4.1-4.1,4.1
						c-2.2,0-4.1-1.8-4.1-4.1C-4.1,1.8-2.2,0,0,0 M-3.4,4.1C-3.4,6-1.9,7.5,0,7.5c1.9,0,3.4-1.5,3.4-3.4c0-1.9-1.5-3.4-3.4-3.4
						C-1.9,0.6-3.4,2.2-3.4,4.1"/>
				</g>
				<g id="g4755" transform="translate(239.1693,413.9156)">
					<path id="path4757" inkscape:connector-curvature="0" class="st0" d="M0,0v-23c1.6,0,3.4,1.4,3.4,3v1.2h1.9
						c1.3,0.1,2.8,1.9,2.8,2.8v5.1c0,1-1.1,1.7-1.6,2C7-8.4,8.1-7.6,8.1-6.6V0H0z M4.7-7.6C4.7-8,4.4-8.6,4-9C4-9.1,3.8-9.3,3.8-9.3
						c0,0-0.1-0.1-0.1-0.1h1.1V-16H3.4v13.2h1.3V-7.6z M17.5-14.9v10.3H9.4v-14.1h4c0.6,0.1,1.4,0.3,2,0.8c0.4,0.3,0.7,0.5,1,0.8
						C17.1-16.4,17.5-15.7,17.5-14.9 M12.6-7.3h1.7v-8.8h-1.7L12.6-7.3z M8.6,0v-2.8h9.7V-23c1.1,0,3.4,1.1,3.4,3.2v17
						c0.7,0,1.3,2,1.3,2.8L8.6,0z"/>
				</g>
				<g id="g4759" transform="translate(276.8953,393.5538)">
					<path id="path4761" inkscape:connector-curvature="0" class="st0" d="M0,0v2.2h6.8c1,0,1.9,1.7,2.4,2.6H0v1.8h5.1
						c1.5,0,3.8,2,3.9,3.1v10.7h-22V6.6h8.8V4.7h-8.8V2.2h8.8V0h-9.1v-2.7H7.4C8.3-2.7,9-1,9.7,0H0z M0,12.2h1.8
						c0.3,0,0.5,0.1,0.8,0.3c0.3,0.2,1.9,2.1,2.1,2.3H0v3h5V9.2H0V12.2z M-9,12.2h4.9v-3H-9V12.2z M-9,17.8h4.9v-3H-9V17.8z"/>
				</g>
				<g id="g4763" transform="translate(292.3643,393.8726)">
					<path id="path4765" inkscape:connector-curvature="0" class="st0" d="M0,0v6.5h14.1c1.3,0,3.6,2.1,3.6,3.2V20H-4.2V0.2
						c0-1.6,1-3.2,2.7-3.2h16.7c1.3,0,2.8,2,3,3H0z M8.9,17.1h4.6V9.4H8.9V17.1z M0,17.1h4.9V9.4H0L0,17.1z"/>
				</g>
				<g id="g4767" transform="translate(318.7608,393.8726)">
					<path id="path4769" inkscape:connector-curvature="0" class="st0" d="M0,0v6.5h14.1c1.3,0,3.6,2.1,3.6,3.2V20H-4.1V0.2
						c0-1.6,1-3.2,2.7-3.2h16.7c1.3,0,2.8,2,3,3H0z M8.9,17.1h4.6V9.4H8.9V17.1z M0,17.1h4.9V9.4H0L0,17.1z"/>
				</g>
				<g id="g4771" transform="translate(350.9519,398.1035)">
					<path id="path4773" inkscape:connector-curvature="0" class="st0" d="M0,0v0.7h1.6V0.1h9.9c0,0-0.2-1.3-2.4-1.3H1.7v-3.6
						c0-2.7-1.7-3-1.7-3v6.5h-11.8V0H0"/>
				</g>
				<g id="g4775" transform="translate(342.9189,395.0523)">
					<path id="path4777" inkscape:connector-curvature="0" class="st0" d="M0,0h1.8c0,0-1.8-2.4-2.4-3C-1.2-3.6-1.9-4.6-3-4.6
						c-0.6,0-0.8,0-0.8,0L0,0"/>
				</g>
				<g id="g4779" transform="translate(359.7723,395.0523)">
					<path id="path4781" inkscape:connector-curvature="0" class="st0" d="M0,0h-1.8c0,0,1.8-2.4,2.4-3C1.2-3.6,1.9-4.6,3-4.6
						c0.6,0,0.8,0,0.8,0L0,0"/>
				</g>
				<g id="g4783" transform="translate(359.9891,411.6483)">
					<path id="path4785" inkscape:connector-curvature="0" class="st0" d="M0,0c2.1,0,2.5,1.3,2.5,1.3h-9.9l0.7,0.9h-1.6l-0.8-1
						h-6.6l0.8,1h-1.7l-4.2-5.5h1.8v-7.5c0,0,0.2,0,0.4,0c2.6,0,2.8,0.3,2.8,0.3H0c2.1,0,2.3,1.3,2.3,1.3h-9.8v2.2H0
						c2.1,0,2.4,1.3,2.4,1.3h-9.9v2.2H0c2.1,0,2.4,1.4,2.4,1.4h-9.9V0H0z M-17.5-7h8.4v-2.1h-8.4V-7z M-17.5-3.6h8.4v-2.1h-8.4V-3.6
						z M-9.1-2.2h-8.4l0,0.7l0.4,0.6l0.6,0.7h7.4V-2.2z"/>
				</g>
				<g id="g4787" transform="translate(367.4394,413.9156)">
					<path id="path4789" inkscape:connector-curvature="0" class="st0" d="M0,0v-23.3h19.6c1.5,0,2,1.4,2,2.8V0H0z M19.9-20.2
						c0-0.8-0.2-1.5-1.3-1.5H1.5v20.4h18.5L19.9-20.2z"/>
				</g>
				<g id="g4791" transform="translate(376.1575,404.484)">
					<path id="path4793" inkscape:connector-curvature="0" class="st0" d="M0,0l-4.9-8.9c0,0,1.7-0.3,2.4,1.3L1.7,0L0,0"/>
				</g>
				<g id="g4795" transform="translate(382.3366,397.2286)">
					<path id="path4797" inkscape:connector-curvature="0" class="st0" d="M0,0c0-0.5-0.2-0.7-0.5-0.7h-1.7V-2h2.1
						c1.3,0,1.7,0.5,1.7,1.9c0,0,0,8.7,0,8.7c1.6,0,1.7,1.4,1.7,1.4l-1.7,0v3H0v-3h-11.1V8.5H0V0"/>
				</g>
			</g>
		</g>
	</g>
</g>
</svg>
