<svg xmlns="http://www.w3.org/2000/svg" width="97" height="92" fill="none" viewBox="0 0 97 92">
    <g fill="#fff" clip-path="url(#clip0)">
        <path d="M64.663 27.29h-2.859c-5.034-1.657-8.148-4.518-8.148-7.483 0-1.484.771-2.97 2.242-4.287.355-.323.466-.812.289-1.248-.172-.436-.6-.721-1.088-.721H41.627c-.483 0-.91.285-1.088.72-.178.437-.061.926.294 1.249 1.465 1.318 2.242 2.803 2.242 4.287 0 2.965-3.12 5.826-8.154 7.483h-2.858c-1.072 0-1.943.845-1.943 1.883v4.686c0 1.038.871 1.882 1.942 1.882h1.183l2.21 40.546c.077 1.43 1.143 2.625 2.602 2.894l1.638.301c1.715.317 3.453.543 5.168.667l.9.07v-8.327c0-.813.438-1.544 1.143-1.915.949-.496 1.965-.5 2.792-.022.794.463 1.27 1.27 1.27 2.168v8.096l.895-.07c1.715-.124 3.452-.35 5.173-.667l1.638-.301c1.454-.27 2.525-1.463 2.603-2.894l2.21-40.546h1.176c1.071 0 1.943-.844 1.943-1.882v-4.686c0-1.038-.872-1.883-1.943-1.883zm-19.922-7.483c0-1.624-.672-3.211-1.949-4.642h11.141c-1.277 1.43-1.943 3.018-1.943 4.642 0 2.884 2.065 5.547 5.679 7.483H39.062c3.614-1.942 5.679-4.6 5.679-7.483zm14.87 56.394c-.038.694-.549 1.264-1.248 1.398l-1.643.301c-1.355.248-2.726.442-4.086.57v-6.347c0-1.447-.8-2.808-2.076-3.55-.677-.393-1.426-.592-2.187-.592-.75 0-1.52.193-2.254.575-1.249.651-2.02 1.931-2.02 3.336v6.579c-1.36-.13-2.737-.323-4.091-.57l-1.638-.302c-.7-.134-1.215-.705-1.254-1.398L34.91 35.74h26.911l-2.21 40.46zm5.33-42.342c0 .15-.123.269-.278.269h-32.6c-.15 0-.278-.119-.278-.27v-4.685c0-.145.128-.269.277-.269h32.601c.156 0 .278.124.278.27v4.685z"/>
        <path fill-rule="evenodd" d="M59.885 90.79c-3.63.817-7.266 1.21-10.841 1.21-20.755 0-39.5-13.207-45.429-33.326l-1.127 3.868c-.227.785-.949 1.167-1.615.866-.666-.307-1.021-1.194-.8-1.974l2.16-7.419c.083-.274.228-.505.4-.661.055-.054.11-.092.177-.14l.106-.049c.055-.032.11-.053.177-.064.067-.022.145-.038.217-.049.066 0 .128 0 .194.006.022.005.05 0 .072.005.04.005.095.016.14.032.199.049.41.151.593.307l6.028 5.024c.639.533.844 1.453.461 2.066-.377.619-1.199.678-1.837.15l-2.987-2.49c6.64 22.298 29.909 35.607 53.372 30.356 24.191-5.411 39.329-28.887 33.745-52.336-2.704-11.357-9.82-21.013-20.017-27.188-10.197-6.17-22.27-8.129-33.988-5.509-15.243 3.41-27.389 14.014-32.473 28.366-.217.608-.91.936-1.538.726-.627-.21-.966-.871-.75-1.49C9.694 15.961 22.484 4.787 38.542 1.2 50.888-1.57 63.61.5 74.356 7.004c10.747 6.514 18.235 16.682 21.088 28.646 5.878 24.708-10.075 49.437-35.56 55.14z" clip-rule="evenodd"/>
        <path d="M5.407 36.613c2.198 0 3.98-1.727 3.98-3.858 0-2.13-1.782-3.857-3.98-3.857s-3.98 1.727-3.98 3.857 1.782 3.858 3.98 3.858z"/>
    </g>
    <defs>
        <clipPath id="clip0">
            <rect width="96.658" height="92" fill="#fff" rx="22.509"/>
        </clipPath>
    </defs>
</svg>
