<svg xmlns="http://www.w3.org/2000/svg" width="94" height="94" fill="none" viewBox="0 0 94 94">
    <path stroke="#fff" stroke-linecap="round" stroke-linejoin="round" stroke-width=".862" d="M63.688 23.963l3.606-1.66 1.655-3.6 1.66 3.6 3.6 1.66-3.6 1.656-1.66 3.605-1.655-3.605-3.606-1.656zm3.034 30.161c1.75-.004 3.427-.702 4.664-1.939 1.238-1.238 1.935-2.915 1.94-4.665 0-2.578-3.268-8.06-5.2-11.098-.148-.234-.352-.428-.595-.562-.243-.134-.515-.204-.792-.204s-.55.07-.792.204c-.243.134-.447.328-.595.562-1.946 3.034-5.2 8.52-5.2 11.098.006 1.745.7 3.418 1.931 4.655 1.232 1.236 2.902 1.937 4.647 1.95h-.008zm-41.788-3.99c-1.395.003-2.73.558-3.716 1.544-.986.986-1.542 2.322-1.545 3.716v18.413c.003 1.394.559 2.73 1.545 3.716.985.986 2.322 1.541 3.716 1.545v0c1.394-.005 2.729-.56 3.715-1.546.985-.986 1.541-2.321 1.546-3.715V55.394c-.005-1.394-.56-2.73-1.546-3.715-.986-.986-2.321-1.541-3.715-1.546zm44.691 15.782h-17.98c-.296 0-.59-.055-.866-.16l-3.87-1.34c-.325-.115-.59-.355-.738-.666-.148-.312-.166-.669-.05-.993.056-.164.145-.315.262-.444.116-.128.257-.232.414-.306.157-.073.327-.115.5-.121.174-.007.347.02.509.082l2.973 1.122c.301.117.621.18.944.187h6.934c.822-.003 1.61-.33 2.191-.912.582-.581.91-1.369.912-2.191v0c-.005-.634-.2-1.252-.562-1.773-.36-.52-.87-.92-1.462-1.148l-18.2-6.786c-.587-.233-1.212-.35-1.842-.343h-4.239V73.85l16.758 4.767c1.08.313 2.233.268 3.285-.13l19.414-7.315c-.001-.692-.139-1.378-.406-2.017-.266-.64-.656-1.22-1.147-1.708s-1.074-.875-1.714-1.138c-.641-.262-1.328-.396-2.02-.393z"/>
    <path stroke="#fff" stroke-miterlimit="10" stroke-width=".862" d="M53.032 32.154c.05-.394.074-.79.074-1.188.002-.397-.026-.794-.087-1.187l2.566-1.998c.11-.091.185-.218.212-.359.028-.14.007-.286-.06-.412l-2.427-4.2c-.072-.126-.186-.223-.323-.273-.136-.051-.285-.052-.423-.004l-3.033 1.214c-.628-.485-1.317-.885-2.05-1.188l-.433-3.21c-.023-.145-.097-.276-.208-.371-.111-.095-.253-.146-.399-.146h-4.853c-.145 0-.285.052-.394.147-.109.095-.18.226-.2.37l-.455 3.21c-.731.305-1.419.704-2.045 1.188l-3.034-1.214c-.137-.05-.287-.051-.424 0-.137.05-.251.15-.321.278L32.3 27.01c-.077.124-.104.272-.076.415.028.143.11.27.228.356l2.565 1.998c-.068.392-.106.79-.113 1.187-.002.398.029.795.091 1.188l-2.57 1.997c-.11.092-.184.219-.212.36-.027.14-.006.285.061.412l2.427 4.195c.072.127.187.224.324.275.137.051.288.052.425.002l3.034-1.213c.625.485 1.313.885 2.045 1.187l.455 3.211c.025.144.099.275.21.37.11.095.251.148.397.15h4.854c.145.002.287-.05.396-.146.11-.096.18-.23.197-.374l.434-3.211c.734-.3 1.424-.7 2.05-1.187l3.033 1.213c.137.051.287.051.424 0 .137-.05.251-.15.321-.277l2.427-4.195c.075-.125.1-.273.073-.415-.028-.143-.108-.27-.225-.357l-2.544-1.997zm-9.026 3.362c-.9 0-1.78-.266-2.528-.766s-1.332-1.211-1.676-2.042c-.344-.832-.434-1.747-.259-2.63.176-.882.609-1.693 1.245-2.33.637-.636 1.447-1.069 2.33-1.244.883-.176 1.798-.086 2.629.258.831.345 1.542.928 2.042 1.676.5.749.767 1.628.767 2.528-.005 1.206-.485 2.36-1.338 3.213-.852.852-2.007 1.333-3.212 1.337z"/>
    <path stroke="#fff" stroke-miterlimit="10" stroke-width="1.5" d="M47 93c25.405 0 46-20.595 46-46S72.405 1 47 1 1 21.595 1 47s20.595 46 46 46z"/>
</svg>
