<svg xmlns="http://www.w3.org/2000/svg" width="94" height="94" fill="none" viewBox="0 0 94 94">
    <path fill="#fff" d="M40.93 45.726c.473-.013.944.068 1.386.24.442.17.846.428 1.187.757 1.218 1.23.867 3.129-.732 4.247l-7.57 5.26s16.107-.164 27.434-.164c4.286 0 7.883.021 9.669.087v5.56l-37.269.173 8.377 4.896c1.734.993 2.167 2.865 1.075 4.195-.359.394-.799.706-1.29.913-.49.208-1.02.306-1.553.288-.786.001-1.558-.204-2.24-.594l-16.078-9.386c-.542-.309-.991-.758-1.3-1.3-.087-.158-.162-.321-.225-.49 0-.082-.03-.182-.048-.264-.042-.14-.055-.288-.039-.434-.021-.172-.021-.347 0-.52.035-.147.078-.292.13-.433.035-.052.03-.108.061-.16.044-.101.096-.198.156-.29.254-.47.618-.87 1.062-1.166L38.41 46.528c.744-.511 1.625-.785 2.527-.785l-.009-.017zm.008-1.283c-1.167.002-2.306.355-3.268 1.014L22.382 56.074c-.593.4-1.084.933-1.435 1.556-.072.115-.136.235-.19.36-.043.085-.079.174-.109.264-.078.193-.146.39-.203.59V58.987c-.036.23-.048.464-.035.697-.012.25.015.5.078.741v.052c0 .018 0 .13.035.191l.026.113.043.108.022.056c.076.197.166.388.268.572.423.75 1.042 1.372 1.79 1.799l16.082 9.39c.88.51 1.878.776 2.894.772.725.02 1.444-.12 2.109-.409.664-.289 1.256-.72 1.735-1.264.36-.423.622-.92.766-1.455.145-.536.169-1.097.07-1.643-.134-.64-.405-1.243-.796-1.767-.39-.523-.89-.956-1.465-1.267l-4.269-2.496 32.527-.152h1.3V54.9l-1.252-.048c-1.63-.056-4.897-.086-9.712-.086-7.687 0-17.667.078-23.231.125l4.103-2.851c.55-.36 1.016-.836 1.363-1.394.347-.559.568-1.186.648-1.839.052-.55-.02-1.104-.21-1.623-.189-.519-.492-.989-.886-1.376-.46-.453-1.007-.809-1.608-1.046-.6-.238-1.243-.352-1.89-.336l-.012.017z"/>
    <path fill="#fff" d="M53.943 23.556c.901.001 1.782.274 2.526.784l15.288 10.613c.442.3.806.699 1.062 1.166.057.093.107.19.152.29.03.052.03.113.06.16.054.142.098.286.13.434.022.173.022.347 0 .52.013.146-.001.293-.043.433 0 .083-.03.182-.047.265-.064.167-.14.329-.226.485-.308.542-.757.992-1.3 1.3l-16.077 9.386c-.68.393-1.451.597-2.236.594-.533.019-1.064-.08-1.556-.286-.492-.208-.932-.52-1.291-.914-1.101-1.33-.633-3.203 1.074-4.19l8.386-4.902-37.268-.169v-5.538c1.785-.065 5.382-.091 9.668-.091 11.328 0 27.44.164 27.44.164l-7.606-5.256c-1.612-1.122-1.95-3.034-.732-4.251.344-.332.752-.591 1.199-.762.446-.172.923-.251 1.4-.235h-.003zm.004-1.3c-.65-.016-1.296.1-1.9.34-.604.241-1.153.602-1.615 1.06-.39.387-.691.855-.878 1.373-.188.517-.258 1.07-.205 1.617.078.653.298 1.28.645 1.839.346.558.811 1.034 1.361 1.394l4.109 2.851c-5.569-.048-15.549-.126-23.232-.126-4.815 0-8.087.03-9.712.091l-1.256.044v8.108h1.3l32.527.147-4.273 2.5c-.574.312-1.073.745-1.463 1.268-.39.524-.661 1.127-.795 1.766-.097.547-.072 1.11.073 1.645.145.537.408 1.035.768 1.458.478.543 1.071.975 1.736 1.263.664.289 1.384.427 2.108.405 1.014.003 2.011-.262 2.89-.767l16.078-9.39c.75-.427 1.37-1.05 1.794-1.803.106-.183.195-.374.268-.572v-.052l.048-.109v-.117c.015-.063.026-.126.035-.19.002-.018.002-.035 0-.052.066-.24.094-.489.082-.737.01-.235-.004-.47-.04-.702v-.139c-.047-.199-.107-.394-.181-.585-.026-.092-.063-.18-.108-.264-.054-.125-.118-.245-.191-.36-.353-.624-.846-1.158-1.439-1.56L57.21 23.274c-.961-.662-2.1-1.017-3.267-1.018h.004z"/>
    <path fill="#fff" fill-rule="evenodd" d="M64.507 70.726c-.945-.808-2.11-1.317-3.344-1.463-1.235-.146-2.486.078-3.594.642-1.108.565-2.023 1.446-2.63 2.53-.608 1.086-.88 2.326-.783 3.566.097 1.24.56 2.423 1.33 3.4.77.976 1.812 1.703 2.995 2.087 1.182.384 2.453.41 3.65.072 1.196-.338 2.266-1.022 3.074-1.968.537-.627.945-1.355 1.2-2.14.256-.786.355-1.614.29-2.438-.065-.823-.292-1.626-.667-2.362-.375-.735-.892-1.39-1.52-1.926zm.377 8.494c-.86 1.015-2.052 1.694-3.365 1.914-1.313.22-2.661-.03-3.806-.71-.103-.063-.19-.148-.257-.249-.066-.1-.11-.214-.128-.333-.018-.119-.01-.24.023-.356.034-.116.092-.223.17-.314l6.154-7.202c.08-.096.178-.174.29-.227.113-.053.236-.08.36-.08.125 0 .248.027.36.08.112.053.212.13.29.227.841 1.026 1.293 2.315 1.276 3.641-.016 1.326-.5 2.604-1.367 3.609zM30.905 14.122c-1.395 0-2.759.414-3.919 1.189-1.16.775-2.064 1.877-2.598 3.166-.534 1.29-.674 2.708-.402 4.076.272 1.369.944 2.626 1.93 3.613.988.986 2.245 1.658 3.613 1.93 1.369.273 2.787.133 4.076-.401 1.29-.534 2.391-1.438 3.167-2.599.775-1.16 1.188-2.524 1.188-3.919 0-1.871-.743-3.665-2.066-4.989-1.323-1.323-3.117-2.066-4.988-2.066zm1.24 13.213c-.134.021-.27.013-.4-.024-.13-.036-.251-.101-.353-.19-.103-.088-.185-.198-.24-.321-.056-.123-.084-.257-.082-.393v-10.63c0-.137.031-.272.09-.397.058-.124.142-.234.248-.323.105-.088.228-.152.36-.188.133-.036.272-.042.407-.019 1.47.259 2.802 1.028 3.76 2.172.958 1.145 1.482 2.59 1.478 4.083-.003 1.493-.534 2.936-1.498 4.076-.964 1.14-2.299 1.902-3.77 2.154z" clip-rule="evenodd"/>
    <path stroke="#fff" stroke-miterlimit="10" stroke-width="1.5" d="M47 93c25.405 0 46-20.595 46-46S72.405 1 47 1 1 21.595 1 47s20.595 46 46 46z"/>
</svg>
